<svg xmlns="http://www.w3.org/2000/svg" viewBox="0 0 1200 430" width="1200" height="430">
  <defs>
    <marker id="arrow2" markerWidth="10" markerHeight="10" refX="8" refY="5" orient="auto">
      <path d="M0,0 L10,5 L0,10 Z" fill="#415a77"/>
    </marker>
  </defs>
  <rect width="1200" height="430" fill="#f8f9fa"/>

  <text x="600" y="34" font-family="Arial, Helvetica, sans-serif" font-size="16" font-weight="700" text-anchor="middle" fill="#0d1b2a">
    Phase 1 Methodology — Exploratory Data Analysis (16 Sections)
  </text>

  <g font-family="Arial, Helvetica, sans-serif">
    <!-- Row 1 -->
    <rect x="30" y="65" width="340" height="110" rx="14" fill="#ffffff" stroke="#dee2e6" stroke-width="1.5"/>
    <text x="200" y="100" font-size="24" text-anchor="middle">📥</text>
    <text x="200" y="128" font-size="14" font-weight="700" text-anchor="middle" fill="#0d1b2a">Data Loading &amp; Inspection</text>
    <text x="200" y="147" font-size="11" text-anchor="middle" fill="#6c757d">Sections 1–3 · Load ZIPs, inspect schema,</text>
    <text x="200" y="162" font-size="11" text-anchor="middle" fill="#6c757d">assess data quality</text>

    <path d="M375,120 L415,120" stroke="#415a77" stroke-width="2.5" marker-end="url(#arrow2)"/>

    <rect x="420" y="65" width="340" height="110" rx="14" fill="#ffffff" stroke="#dee2e6" stroke-width="1.5"/>
    <text x="590" y="100" font-size="24" text-anchor="middle">📊</text>
    <text x="590" y="128" font-size="14" font-weight="700" text-anchor="middle" fill="#0d1b2a">Descriptive Statistics</text>
    <text x="590" y="147" font-size="11" text-anchor="middle" fill="#6c757d">Section 4 · Summary stats across</text>
    <text x="590" y="162" font-size="11" text-anchor="middle" fill="#6c757d">300+ listed companies</text>

    <path d="M765,120 L805,120" stroke="#415a77" stroke-width="2.5" marker-end="url(#arrow2)"/>

    <rect x="810" y="65" width="360" height="110" rx="14" fill="#ffffff" stroke="#00b4d8" stroke-width="2"/>
    <text x="990" y="100" font-size="24" text-anchor="middle">📈</text>
    <text x="990" y="128" font-size="14" font-weight="700" text-anchor="middle" fill="#0d1b2a">Time-Series Analysis</text>
    <text x="990" y="147" font-size="11" text-anchor="middle" fill="#6c757d">Sections 5–7 · Market indices,</text>
    <text x="990" y="162" font-size="11" text-anchor="middle" fill="#6c757d">trading volume, individual stocks</text>

    <!-- connector down -->
    <path d="M990,178 L990,205 L200,205 L200,232" stroke="#415a77" stroke-width="2.5" fill="none" marker-end="url(#arrow2)"/>

    <!-- Row 2 -->
    <rect x="30" y="237" width="340" height="120" rx="14" fill="#ffffff" stroke="#dee2e6" stroke-width="1.5"/>
    <text x="200" y="272" font-size="24" text-anchor="middle">🔬</text>
    <text x="200" y="300" font-size="14" font-weight="700" text-anchor="middle" fill="#0d1b2a">Statistical Analysis</text>
    <text x="200" y="319" font-size="11" text-anchor="middle" fill="#6c757d">Sections 8–11 · Distributions,</text>
    <text x="200" y="334" font-size="11" text-anchor="middle" fill="#6c757d">correlation, outliers, relationships</text>

    <path d="M375,297 L415,297" stroke="#415a77" stroke-width="2.5" marker-end="url(#arrow2)"/>

    <rect x="420" y="237" width="340" height="120" rx="14" fill="#ffffff" stroke="#dee2e6" stroke-width="1.5"/>
    <text x="590" y="272" font-size="24" text-anchor="middle">⚡</text>
    <text x="590" y="300" font-size="14" font-weight="700" text-anchor="middle" fill="#0d1b2a">Advanced Analysis</text>
    <text x="590" y="319" font-size="11" text-anchor="middle" fill="#6c757d">Sections 12–14 · Time-based features,</text>
    <text x="590" y="334" font-size="11" text-anchor="middle" fill="#6c757d">volatility, trend analysis</text>

    <path d="M765,297 L805,297" stroke="#415a77" stroke-width="2.5" marker-end="url(#arrow2)"/>

    <rect x="810" y="237" width="360" height="120" rx="14" fill="#0d1b2a"/>
    <text x="990" y="272" font-size="24" text-anchor="middle">📋</text>
    <text x="990" y="300" font-size="14" font-weight="700" text-anchor="middle" fill="#ffffff">Insights &amp; Interactive Viz</text>
    <text x="990" y="319" font-size="11" text-anchor="middle" fill="#e0e1dd">Sections 15–16 · Plotly dashboards,</text>
    <text x="990" y="334" font-size="11" text-anchor="middle" fill="#e0e1dd">closing summary of findings</text>
  </g>

  <text x="600" y="405" font-family="Arial, Helvetica, sans-serif" font-size="12" text-anchor="middle" fill="#6c757d">
    Full detail in 01_CSE_Exploratory_Data_Analysis.ipynb — feeds directly into Phase 2 (Feature Engineering)
  </text>
</svg>
